:version 1.10
:name ASF
:units
  mass 1
  length 1
  angle deg
:documentation
  ASF file generated by Kaydara
:root
  axis xyz
  order  tx ty tz rx ry rz
  position 0 0 0
  orientation 0 0 0
:bonedata
  begin
    id 1
    name RightUpLegDummy
    direction -1 2.30186e-007 8.31532e-007
    length 4.04083
    axis 0 0 0 xyz
  end
  begin
    id 2
    name RightUpLeg
    direction -0.000919234 -0.999985 0.00544864
    length 17.4221
    axis -3.80308 -0.00076134 -0.0523649 xyz
    dof rx ry rz
  end
  begin
    id 3
    name RightLeg
    direction -0.000919271 -0.999984 -0.00555045
    length 17.1239
    axis 4.00314 0.0181274 -0.183583 xyz
    dof rx ry rz
  end
  begin
    id 4
    name RightFoot
    direction -2.57843e-005 -4.04509e-007 1
    length 6.72091
    axis 8.18909e-005 -0.122003 -0.403008 xyz
    dof rx ry rz
  end
  begin
    id 5
    name RightToes
    direction 0.00116825 -0.014069 0.9999
    length 3.85082
    axis 0.000514414 0.540638 -0.356797 xyz
    dof rx ry rz
  end
  begin
    id 6
    name SpineDummy
    direction 0.0168869 0.966876 -0.254689
    length 6.99894
    axis 0 0 0 xyz
  end
  begin
    id 7
    name Spine
    direction -0.0132008 0.999903 0.00446247
    length 11.1999
    axis -0.00148109 0.00725429 0.756411 xyz
    dof rx ry rz
  end
  begin
    id 8
    name Spine1
    direction 0 0 0
    length 0
    axis -0.000934958 0.0245693 1.46543 xyz
    dof rx ry rz
  end
  begin
    id 9
    name HEadDummy
    direction -0.0255732 0.999672 0.00128215
    length 3.43865
    axis -0.000934958 0.0245693 1.46543 xyz
  end
  begin
    id 10
    name HEad
    direction -0.0472656 0.980052 0.19304
    length 5.12695
    axis -0.000934954 0.0245693 1.46543 xyz
    dof rx ry rz
  end
  begin
    id 11
    name LeftShoulder1Dummy
    direction 0.953098 0.301717 -0.023914
    length 3.68488
    axis -0.000934958 0.0245693 1.46543 xyz
  end
  begin
    id 12
    name LeftShoulder1
    direction 0.962466 0.271167 0.0112566
    length 3.13809
    axis -0.000934958 0.0245693 1.46543 xyz
    dof rx ry rz
  end
  begin
    id 13
    name LeftArm
    direction 0.999943 0.00455037 -0.00961766
    length 11.3419
    axis -23.1648 0.685459 1.22814 xyz
    dof rx ry rz
  end
  begin
    id 14
    name LeftForeArm
    direction 0.999332 0.0131969 0.0340885
    length 8.70632
    axis -9.90633 0.618216 0.0826942 xyz
    dof rx ry rz
  end
  begin
    id 15
    name LeftHand
    direction 0.994373 -0.0366703 0.0993905
    length 5.32135
    axis 0.00675269 0.680415 0.445699 xyz
    dof rx ry rz
  end
  begin
    id 16
    name RightShoulderDummy
    direction -0.967298 0.252589 -0.0230903
    length 3.68488
    axis -0.000934958 0.0245693 1.46543 xyz
  end
  begin
    id 17
    name RightShoulder
    direction -0.975062 0.221602 0.0120823
    length 3.13809
    axis 0.216257 0.0246515 1.45863 xyz
    dof rx ry rz
  end
  begin
    id 18
    name RightArm
    direction -0.99886 -0.00851186 -0.0469687
    length 10.3947
    axis -23.196 0.23503 -0.532632 xyz
    dof rx ry rz
  end
  begin
    id 19
    name RightForeArm
    direction -0.99909 0.00114866 0.0426317
    length 8.68355
    axis -9.91764 -0.134943 0.610517 xyz
    dof rx ry rz
  end
  begin
    id 20
    name RightHand
    direction -0.992888 -0.0489538 0.10852
    length 5.28593
    axis -0.00275396 -0.197403 0.246414 xyz
    dof rx ry rz
  end
  begin
    id 21
    name LeftUpLegDummy
    direction 1 -2.30186e-007 -8.31532e-007
    length 4.04083
    axis 0 0 0 xyz
  end
  begin
    id 22
    name LeftUpLeg
    direction -0.000920097 -1 2.79241e-006
    length 17.4221
    axis -3.48782 0.00143434 -0.0532288 xyz
    dof rx ry rz
  end
  begin
    id 23
    name LeftLeg
    direction -0.000920097 -1 2.7912e-006
    length 17.1239
    axis 3.68162 -0.00806512 -0.0529896 xyz
    dof rx ry rz
  end
  begin
    id 24
    name LeftFoot
    direction -2.57845e-005 -3.987e-007 1
    length 6.72091
    axis 3.02372e-005 -0.00147829 -0.214229 xyz
    dof rx ry rz
  end
  begin
    id 25
    name LeftToes
    direction 0.00813577 -0.00488255 0.999955
    length 3.85048
    axis 3.89895e-005 -0.0014783 -0.214229 xyz
    dof rx ry rz
  end
:hierarchy
  begin
    root RightUpLegDummy SpineDummy LeftUpLegDummy
    RightUpLegDummy RightUpLeg
    RightUpLeg RightLeg
    RightLeg RightFoot
    RightFoot RightToes
    SpineDummy Spine
    Spine Spine1
    Spine1 HEadDummy LeftShoulder1Dummy RightShoulderDummy
    HEadDummy HEad
    LeftShoulder1Dummy LeftShoulder1
    LeftShoulder1 LeftArm
    LeftArm LeftForeArm
    LeftForeArm LeftHand
    RightShoulderDummy RightShoulder
    RightShoulder RightArm
    RightArm RightForeArm
    RightForeArm RightHand
    LeftUpLegDummy LeftUpLeg
    LeftUpLeg LeftLeg
    LeftLeg LeftFoot
    LeftFoot LeftToes
  end

:SAMPLES-PER-SECOND 30
:FULLY-SPECIFIED
:DEGREES
20
root  -15.1091 34.5765 -16.6247 -170.85 -2.07257 -179.873
RightUpLeg  -8.95796 -15.5726 -0.0803194
RightLeg  6.48753 -1.78838 -0.0863552
RightFoot  3.70581 0.0102749 0.00242496
RightToes  -23.2573 -0.111275 -0.199671
Spine  -2.42964 -0.28871 -0.272133
Spine1  -4.93145 -0.585971 -0.0326032
HEad  -63.096 -3.41596 10.679
LeftShoulder1  -1.94126e-019 -3.10601e-018 -2.51263e-017
LeftArm  -14.0308 25.5184 -81.0979
LeftForeArm  33.0898 -15.6077 -2.54859
LeftHand  -0.451292 -1.10047 8.3578
RightShoulder  -4.96962e-017 0 -2.36833e-017
RightArm  -41.2936 -24.4434 74.444
RightForeArm  60.9831 11.6036 1.49624
RightHand  -0.433863 -0.892637 -11.1432
LeftUpLeg  -7.592 3.34171 3.50293
LeftLeg  6.21845 13.3844 0.586696
LeftFoot  4.82632 -0.0383649 1.22935
LeftToes  -20.8324 1.70063e-006 7.6642e-008
21
root  -15.1197 34.5817 -16.627 -170.907 -1.90114 -179.894
RightUpLeg  -8.87442 -15.4792 -0.141218
RightLeg  6.40379 -1.71617 -0.0803173
RightFoot  3.76507 0.00996284 0.00688427
RightToes  -23.2374 -0.111275 -0.199671
Spine  -2.43748 -0.221292 -0.272355
Spine1  -4.94879 -0.447295 -0.0298816
HEad  -62.8449 -3.24772 10.4293
LeftShoulder1  -1.94126e-019 -3.10601e-018 -2.51263e-017
LeftArm  -14.132 25.6442 -81.1587
LeftForeArm  32.9487 -15.6377 -2.54681
LeftHand  -0.452901 -1.15739 8.31073
RightShoulder  -4.96962e-017 0 -2.36833e-017
RightArm  -41.1493 -24.385 74.5412
RightForeArm  61.0374 11.5972 1.49652
RightHand  -0.436223 -0.827771 -11.0658
LeftUpLeg  -7.46738 3.34002 3.45441
LeftLeg  6.1574 13.5378 0.578998
LeftFoot  4.8076 -0.0390645 1.24022
LeftToes  -20.6187 1.70063e-006 7.6642e-008
22
root  -15.1315 34.584 -16.6356 -170.975 -1.66736 -179.915
RightUpLeg  -8.79217 -15.3353 -0.216128
RightLeg  6.34392 -1.63739 -0.0748716
RightFoot  3.82753 0.0096139 0.0118706
RightToes  -23.3323 -0.111275 -0.199671
Spine  -2.45392 -0.156286 -0.258779
Spine1  -4.98445 -0.310164 -0.000827109
HEad  -62.5111 -3.0438 10.1309
LeftShoulder1  -1.94126e-019 -3.10601e-018 -2.51263e-017
LeftArm  -14.2532 25.8545 -81.2267
LeftForeArm  32.8489 -15.5852 -2.52244
LeftHand  -0.453182 -1.12783 8.33278
RightShoulder  -4.96962e-017 0 -2.36833e-017
RightArm  -40.6992 -24.3177 74.587
RightForeArm  60.85 11.7388 1.48658
RightHand  -0.437206 -0.777621 -11.0611
LeftUpLeg  -7.32541 3.48241 3.4014
LeftLeg  6.12101 13.6117 0.573526
LeftFoot  4.76771 -0.0389972 1.23917
LeftToes  -20.4374 1.70063e-006 7.6642e-008
23
root  -15.143 34.5848 -16.6461 -171.028 -1.45407 -179.919
RightUpLeg  -8.74391 -15.2204 -0.264465
RightLeg  6.33587 -1.55327 -0.0707541
RightFoot  3.83347 0.00912817 0.0188116
RightToes  -23.324 -0.111275 -0.199671
Spine  -2.48014 -0.120853 -0.239787
Spine1  -5.04 -0.229385 0.0367027
HEad  -62.2227 -2.8021 9.81602
LeftShoulder1  -1.94126e-019 -3.10601e-018 -2.51263e-017
LeftArm  -14.3338 26.1049 -81.2496
LeftForeArm  32.6593 -15.593 -2.51173
LeftHand  -0.457432 -1.07903 8.20107
RightShoulder  -4.96962e-017 0 -2.36833e-017
RightArm  -40.3891 -24.1946 74.6397
RightForeArm  60.6846 11.9094 1.47317
RightHand  -0.438509 -0.73195 -11.0669
LeftUpLeg  -7.22116 3.45057 3.36708
LeftLeg  6.14683 13.8397 0.589147
LeftFoot  4.69385 -0.039236 1.24289
LeftToes  -20.303 1.70063e-006 7.6642e-008
24
root  -15.1564 34.5902 -16.6601 -171.093 -1.18478 -179.924
RightUpLeg  -8.65084 -14.9946 -0.328932
RightLeg  6.25837 -1.51035 -0.066727
RightFoot  3.91097 0.00890015 0.02207
RightToes  -23.3414 -0.111275 -0.199671
Spine  -2.50655 -0.0893103 -0.211796
Spine1  -5.09537 -0.154261 0.0959325
HEad  -61.9061 -2.60312 9.4977
LeftShoulder1  -1.94126e-019 -3.10601e-018 -2.51263e-017
LeftArm  -14.4226 26.3312 -81.2889
LeftForeArm  32.656 -15.3203 -2.46159
LeftHand  -0.458753 -1.15554 8.22649
RightShoulder  -4.96962e-017 0 -2.36833e-017
RightArm  -39.9058 -24.0282 74.6495
RightForeArm  60.2782 12.1046 1.45702
RightHand  -0.439502 -0.786516 -11.0535
LeftUpLeg  -7.08979 3.63748 3.32094
LeftLeg  6.15492 13.9219 0.594531
LeftFoot  4.66342 -0.0394007 1.24545
LeftToes  -20.2285 1.70063e-006 7.6642e-008
25
root  -15.1704 34.5958 -16.6776 -171.166 -0.954254 -179.933
RightUpLeg  -8.52198 -14.8258 -0.394842
RightLeg  6.14332 -1.45573 -0.0613542
RightFoot  3.99017 0.00861637 0.0261251
RightToes  -23.394 -0.111275 -0.199671
Spine  -2.5223 -0.0721834 -0.17998
Spine1  -5.12829 -0.108429 0.164511
HEad  -61.6909 -2.46611 9.23456
LeftShoulder1  -1.94126e-019 -3.10601e-018 -2.51263e-017
LeftArm  -14.4615 26.4911 -81.323
LeftForeArm  32.6508 -14.9805 -2.41089
LeftHand  -0.459012 -1.18507 8.25357
RightShoulder  -4.96962e-017 0 -2.36833e-017
RightArm  -39.3189 -23.8636 74.6249
RightForeArm  59.8091 12.342 1.43516
RightHand  -0.441402 -0.730723 -10.9741
LeftUpLeg  -6.89824 3.67478 3.27278
LeftLeg  6.05216 14.1226 0.577838
LeftFoot  4.70301 -0.0413546 1.27582
LeftToes  -20.152 1.70063e-006 7.6642e-008
26
root  -15.1808 34.6006 -16.6979 -171.237 -0.736893 -179.944
RightUpLeg  -8.40331 -14.6555 -0.457978
RightLeg  6.06452 -1.42558 -0.0581024
RightFoot  4.00929 0.00833058 0.030209
RightToes  -23.2862 -0.111275 -0.199671
Spine  -2.53229 -0.0603276 -0.148413
Spine1  -5.14911 -0.074142 0.234136
HEad  -61.5077 -2.36335 9.01221
LeftShoulder1  -1.94126e-019 -3.10601e-018 -2.51263e-017
LeftArm  -14.5132 26.6009 -81.3383
LeftForeArm  32.7766 -14.6013 -2.35389
LeftHand  -0.457786 -1.08903 8.2743
RightShoulder  -4.96962e-017 0 -2.36833e-017
RightArm  -38.6935 -23.7176 74.6104
RightForeArm  59.3678 12.619 1.40698
RightHand  -0.431854 -0.777045 -10.839
LeftUpLeg  -6.66014 3.71371 3.23282
LeftLeg  5.84756 14.2919 0.534078
LeftFoot  4.79079 -0.04394 1.31601
LeftToes  -19.982 1.70063e-006 7.6642e-008
27
root  -15.1934 34.6027 -16.7181 -171.267 -0.598953 -179.933
RightUpLeg  -8.31552 -14.5514 -0.490008
RightLeg  5.98065 -1.39269 -0.0547012
RightFoot  4.06722 0.00813046 0.0330686
RightToes  -23.3664 -0.111275 -0.199671
Spine  -2.56024 -0.075765 -0.107208
Spine1  -5.20527 -0.0954054 0.320571
HEad  -61.4026 -2.21869 8.88698
LeftShoulder1  -1.94126e-019 -3.10601e-018 -2.51263e-017
LeftArm  -14.5575 26.6841 -81.3431
LeftForeArm  32.967 -14.2289 -2.30581
LeftHand  -0.45721 -1.22026 8.32984
RightShoulder  -4.96962e-017 0 -2.36833e-017
RightArm  -38.2945 -23.5969 74.5861
RightForeArm  59.1392 12.805 1.38612
RightHand  -0.437064 -0.734624 -10.8746
LeftUpLeg  -6.54818 3.87897 3.21447
LeftLeg  5.79141 14.2721 0.5195
LeftFoot  4.79372 -0.0440203 1.31726
LeftToes  -20.0062 1.70063e-006 7.6642e-008
28
root  -15.2038 34.6029 -16.7408 -171.278 -0.52005 -179.917
RightUpLeg  -8.24079 -14.5923 -0.505749
RightLeg  5.90122 -1.26568 -0.047866
RightFoot  4.10519 0.00809024 0.0336434
RightToes  -23.4302 -0.111275 -0.199671
Spine  -2.59723 -0.103123 -0.0610409
Spine1  -5.27909 -0.14273 0.413432
HEad  -61.2204 -2.11483 8.77426
LeftShoulder1  -1.94126e-019 -3.10601e-018 -2.51263e-017
LeftArm  -14.5002 26.8064 -81.3103
LeftForeArm  32.9856 -14.118 -2.29538
LeftHand  -0.457791 -1.12331 8.25903
RightShoulder  -4.96962e-017 0 -2.36833e-017
RightArm  -38.0255 -23.5198 74.5499
RightForeArm  58.9025 12.9329 1.37168
RightHand  -0.438459 -0.680535 -10.8725
LeftUpLeg  -6.4765 4.26779 3.21169
LeftLeg  5.76356 13.9694 0.501959
LeftFoot  4.76845 -0.0419745 1.28546
LeftToes  -20.077 1.70063e-006 7.6642e-008
29
root  -15.2154 34.6023 -16.7553 -171.292 -0.550873 -179.9
RightUpLeg  -8.1782 -14.6385 -0.513981
RightLeg  5.8592 -1.2617 -0.0467885
RightFoot  4.12051 0.00813227 0.0330428
RightToes  -23.5484 -0.111275 -0.199671
Spine  -2.63326 -0.143026 -0.00921661
Spine1  -5.35055 -0.217907 0.516294
HEad  -60.9937 -2.0764 8.703
LeftShoulder1  -1.94126e-019 -3.10601e-018 -2.51263e-017
LeftArm  -14.3903 26.8791 -81.2811
LeftForeArm  33.0114 -14.0898 -2.29542
LeftHand  -0.456477 -1.19486 8.32166
RightShoulder  -4.96962e-017 0 -2.36833e-017
RightArm  -37.7988 -23.5346 74.5046
RightForeArm  58.6503 13.0508 1.35841
RightHand  -0.437976 -0.684921 -10.8542
LeftUpLeg  -6.44478 4.40812 3.21765
LeftLeg  5.76707 13.7958 0.496671
LeftFoot  4.72049 -0.0402905 1.25928
LeftToes  -20.1382 1.70063e-006 7.6642e-008
30
root  -15.2279 34.6023 -16.76 -171.293 -0.673584 -179.891
RightUpLeg  -8.1463 -14.7238 -0.524711
RightLeg  5.85164 -1.28555 -0.0413377
RightFoot  4.11921 0.00822462 0.031723
RightToes  -23.5669 -0.111275 -0.199671
Spine  -2.66778 -0.184059 0.033957
Spine1  -5.41908 -0.298565 0.601004
HEad  -60.8335 -2.1087 8.76031
LeftShoulder1  -1.94126e-019 -3.10601e-018 -2.51263e-017
LeftArm  -14.2301 26.8818 -81.2153
LeftForeArm  33.0245 -14.2344 -2.32103
LeftHand  -0.456251 -1.12835 8.2999
RightShoulder  -4.96962e-017 0 -2.36833e-017
RightArm  -37.7872 -23.5971 74.4896
RightForeArm  58.5556 13.0622 1.35771
RightHand  -0.435348 -0.757157 -10.8661
LeftUpLeg  -6.46636 4.46671 3.2192
LeftLeg  5.78301 13.6269 0.494452
LeftFoot  4.67783 -0.0386834 1.2343
LeftToes  -20.1171 1.70063e-006 7.6642e-008
31
root  -15.2449 34.6041 -16.7596 -171.298 -0.876572 -179.904
RightUpLeg  -8.09052 -14.933 -0.560085
RightLeg  5.80472 -1.2611 -0.0455685
RightFoot  4.14587 0.00833536 0.0301407
RightToes  -23.6251 -0.111275 -0.199671
Spine  -2.69897 -0.224842 0.067671
Spine1  -5.48067 -0.381952 0.667744
HEad  -60.6479 -2.22237 8.85822
LeftShoulder1  -1.94126e-019 -3.10601e-018 -2.51263e-017
LeftArm  -14.0633 26.8123 -81.1447
LeftForeArm  33.108 -14.4865 -2.36745
LeftHand  -0.456331 -1.11238 8.29202
RightShoulder  -4.96962e-017 0 -2.36833e-017
RightArm  -37.9241 -23.6998 74.4625
RightForeArm  58.6446 12.9395 1.37265
RightHand  -0.434314 -0.752958 -10.8468
LeftUpLeg  -6.49556 4.36886 3.19706
LeftLeg  5.78017 13.5131 0.489728
LeftFoot  4.69491 -0.0382765 1.22797
LeftToes  -20.1403 1.70063e-006 7.6642e-008
32
root  -15.2643 34.6068 -16.7495 -171.316 -1.07315 -179.929
RightUpLeg  -8.04895 -15.075 -0.609195
RightLeg  5.7798 -1.32527 -0.0473644
RightFoot  4.16556 0.00843252 0.0287523
RightToes  -23.6175 -0.111275 -0.199671
Spine  -2.7028 -0.238815 0.0882676
Spine1  -5.48766 -0.414134 0.708246
HEad  -60.5505 -2.39961 8.97861
LeftShoulder1  -1.94126e-019 -3.10601e-018 -2.51263e-017
LeftArm  -13.8953 26.6645 -81.0713
LeftForeArm  33.1206 -14.923 -2.44182
LeftHand  -0.459299 -1.21502 8.22358
RightShoulder  -4.96962e-017 0 -2.36833e-017
RightArm  -38.102 -23.797 74.4615
RightForeArm  58.837 12.7332 1.39663
RightHand  -0.43073 -0.846714 -10.8859
LeftUpLeg  -6.52163 4.14842 3.15492
LeftLeg  5.77098 13.5411 0.488574
LeftFoot  4.709 -0.0386251 1.23339
LeftToes  -20.0753 1.70063e-006 7.6642e-008
